# Blender 5.2.1 LTS
# www.blender.org
mtllib railProfile.mtl
o mesh_scaled_double
v 0.750518 0.000000 -0.000000
v 0.765141 0.000000 -0.000000
v 0.778348 -0.001509 -0.000000
v 0.782499 -0.006509 -0.000000
v 0.783537 -0.029622 -0.000000
v 0.765652 -0.034208 -0.000000
v 0.758511 -0.045018 -0.000000
v 0.758340 -0.104977 -0.000000
v 0.764315 -0.120858 -0.000000
v 0.816384 -0.133358 -0.000000
v 0.816384 -0.144358 -0.000000
v 0.735896 0.000000 -0.000000
v 0.722689 -0.001509 -0.000000
v 0.718538 -0.006509 -0.000000
v 0.717500 -0.029622 -0.000000
v 0.735385 -0.034208 -0.000000
v 0.742526 -0.045018 -0.000000
v 0.742697 -0.104977 -0.000000
v 0.736722 -0.120858 -0.000000
v 0.684653 -0.133358 -0.000000
v 0.684653 -0.144358 -0.000000
v 0.750518 -0.000000 -1.000000
v 0.765141 -0.000000 -1.000000
v 0.778348 -0.001509 -1.000000
v 0.782499 -0.006509 -1.000000
v 0.783537 -0.029622 -1.000000
v 0.765652 -0.034208 -1.000000
v 0.758511 -0.045018 -1.000000
v 0.758340 -0.104977 -1.000000
v 0.764315 -0.120858 -1.000000
v 0.816384 -0.133358 -1.000000
v 0.816384 -0.144358 -1.000000
v 0.735896 -0.000000 -1.000000
v 0.722689 -0.001509 -1.000000
v 0.718538 -0.006509 -1.000000
v 0.717500 -0.029622 -1.000000
v 0.735385 -0.034208 -1.000000
v 0.742526 -0.045018 -1.000000
v 0.742697 -0.104977 -1.000000
v 0.736722 -0.120858 -1.000000
v 0.684653 -0.133358 -1.000000
v 0.684653 -0.144358 -1.000000
v -0.750518 0.000000 -0.000000
v -0.765141 0.000000 -0.000000
v -0.778348 -0.001509 -0.000000
v -0.782499 -0.006509 -0.000000
v -0.783537 -0.029622 -0.000000
v -0.765652 -0.034208 -0.000000
v -0.758511 -0.045018 -0.000000
v -0.758340 -0.104977 -0.000000
v -0.764315 -0.120858 -0.000000
v -0.816384 -0.133358 -0.000000
v -0.816384 -0.144358 -0.000000
v -0.735896 0.000000 -0.000000
v -0.722689 -0.001509 -0.000000
v -0.718538 -0.006509 -0.000000
v -0.717500 -0.029622 -0.000000
v -0.735385 -0.034208 -0.000000
v -0.742526 -0.045018 -0.000000
v -0.742697 -0.104977 -0.000000
v -0.736722 -0.120858 -0.000000
v -0.684653 -0.133358 -0.000000
v -0.684653 -0.144358 -0.000000
v -0.750518 -0.000000 -1.000000
v -0.765141 -0.000000 -1.000000
v -0.778348 -0.001509 -1.000000
v -0.782499 -0.006509 -1.000000
v -0.783537 -0.029622 -1.000000
v -0.765652 -0.034208 -1.000000
v -0.758511 -0.045018 -1.000000
v -0.758340 -0.104977 -1.000000
v -0.764315 -0.120858 -1.000000
v -0.816384 -0.133358 -1.000000
v -0.816384 -0.144358 -1.000000
v -0.735896 -0.000000 -1.000000
v -0.722689 -0.001509 -1.000000
v -0.718538 -0.006509 -1.000000
v -0.717500 -0.029622 -1.000000
v -0.735385 -0.034208 -1.000000
v -0.742526 -0.045018 -1.000000
v -0.742697 -0.104977 -1.000000
v -0.736722 -0.120858 -1.000000
v -0.684653 -0.133358 -1.000000
v -0.684653 -0.144358 -1.000000
vn -0.2484 -0.9687 -0.0000
vn 0.9359 0.3521 -0.0000
vn -0.0000 1.0000 -0.0000
vn -0.8344 -0.5512 -0.0000
vn 0.2334 0.9724 -0.0000
vn 0.1135 0.9935 -0.0000
vn -1.0000 -0.0029 -0.0000
vn 1.0000 -0.0000 -0.0000
vn 0.7694 0.6388 -0.0000
vn -0.9359 0.3521 -0.0000
vn 0.9990 0.0449 -0.0000
vn -0.2334 0.9724 -0.0000
vn -0.1135 0.9935 -0.0000
vn 0.2484 -0.9687 -0.0000
vn -1.0000 -0.0000 -0.0000
vn -0.7694 0.6388 -0.0000
vn 0.8344 -0.5512 -0.0000
vn -0.9990 0.0449 -0.0000
vn 1.0000 -0.0029 -0.0000
vt 0.000000 0.000000
s 0
f 15/1/1 36/1/1 37/1/1 16/1/1
f 8/1/2 9/1/2 30/1/2 29/1/2
f 64/1/3 65/1/3 44/1/3 43/1/3 54/1/3 75/1/3
f 16/1/4 37/1/4 38/1/4 17/1/4
f 9/1/5 10/1/5 31/1/5 30/1/5
f 2/1/6 3/1/6 24/1/6 23/1/6
f 17/1/7 38/1/7 39/1/7 18/1/7
f 10/1/8 11/1/8 32/1/8 31/1/8
f 3/1/9 4/1/9 25/1/9 24/1/9
f 18/1/10 39/1/10 40/1/10 19/1/10
f 4/1/11 5/1/11 26/1/11 25/1/11
f 19/1/12 40/1/12 41/1/12 20/1/12
f 12/1/13 33/1/13 34/1/13 13/1/13
f 5/1/14 6/1/14 27/1/14 26/1/14
f 20/1/15 41/1/15 42/1/15 21/1/15
f 13/1/16 34/1/16 35/1/16 14/1/16
f 6/1/17 7/1/17 28/1/17 27/1/17
f 14/1/18 35/1/18 36/1/18 15/1/18
f 7/1/19 8/1/19 29/1/19 28/1/19
f 57/1/14 58/1/14 79/1/14 78/1/14
f 50/1/10 71/1/10 72/1/10 51/1/10
f 58/1/17 59/1/17 80/1/17 79/1/17
f 51/1/12 72/1/12 73/1/12 52/1/12
f 44/1/13 65/1/13 66/1/13 45/1/13
f 59/1/19 60/1/19 81/1/19 80/1/19
f 52/1/15 73/1/15 74/1/15 53/1/15
f 45/1/16 66/1/16 67/1/16 46/1/16
f 60/1/2 61/1/2 82/1/2 81/1/2
f 46/1/18 67/1/18 68/1/18 47/1/18
f 61/1/5 62/1/5 83/1/5 82/1/5
f 54/1/6 55/1/6 76/1/6 75/1/6
f 47/1/1 68/1/1 69/1/1 48/1/1
f 62/1/8 63/1/8 84/1/8 83/1/8
f 55/1/9 56/1/9 77/1/9 76/1/9
f 48/1/4 69/1/4 70/1/4 49/1/4
f 56/1/11 57/1/11 78/1/11 77/1/11
f 49/1/7 70/1/7 71/1/7 50/1/7
f 1/1/3 2/1/3 23/1/3 22/1/3 33/1/3 12/1/3
